<svg width="30" height="30" viewBox="0 0 30 30" fill="none" xmlns="http://www.w3.org/2000/svg">
<g clip-path="url(#clip0_11889_81122)">
<path d="M7.83063 0.84375H6.67188V3.81596H7.83063V0.84375Z" fill="#00BABA"/>
<path d="M11.1041 0.84375H9.94531V3.81596H11.1041V0.84375Z" fill="#00BABA"/>
<path d="M14.3775 0.84375H13.2188V3.81596H14.3775V0.84375Z" fill="#00BABA"/>
<path d="M17.6588 0.84375H16.5V3.81596H17.6588V0.84375Z" fill="#00BABA"/>
<path d="M20.94 0.84375H19.7812V3.81596H20.94V0.84375Z" fill="#00BABA"/>
<path d="M7.83063 22.9355H6.67188V25.9078H7.83063V22.9355Z" fill="#00BABA"/>
<path d="M11.1041 22.9355H9.94531V25.9078H11.1041V22.9355Z" fill="#00BABA"/>
<path d="M14.3775 22.9355H13.2188V25.9078H14.3775V22.9355Z" fill="#00BABA"/>
<path d="M26.4566 6.24414H23.4844V7.4029H26.4566V6.24414Z" fill="#00BABA"/>
<path d="M26.4566 9.52344H23.4844V10.6822H26.4566V9.52344Z" fill="#00BABA"/>
<path d="M17.6594 25.9075H16.5006V23.5147H3.78906V3.24219H24.0615V12.7961H26.4544V13.9549H22.9028V4.40095H4.94782V22.3559H17.6594V25.9075Z" fill="#00BABA"/>
<path d="M4.37065 6.24414H1.39844V7.4029H4.37065V6.24414Z" fill="#00BABA"/>
<path d="M4.37065 9.52344H1.39844V10.6822H4.37065V9.52344Z" fill="#00BABA"/>
<path d="M4.37065 12.7969H1.39844V13.9556H4.37065V12.7969Z" fill="#00BABA"/>
<path d="M4.37065 16.0762H1.39844V17.2349H4.37065V16.0762Z" fill="#00BABA"/>
<path d="M4.37065 19.3555H1.39844V20.5142H4.37065V19.3555Z" fill="#00BABA"/>
<path d="M24.4813 29.4544C21.9378 29.4544 19.2031 28.7476 19.2031 27.2064V17.6699C19.2031 16.1229 21.9378 15.4219 24.4813 15.4219C27.0247 15.4219 29.771 16.1229 29.771 17.6699V27.2064C29.771 28.765 27.0247 29.4544 24.4813 29.4544ZM24.4813 16.5806C21.7814 16.5806 20.3619 17.386 20.3619 17.6699V27.2064C20.3619 27.4845 21.7814 28.2957 24.4813 28.2957C27.1812 28.2957 28.6122 27.4845 28.6122 27.2064V17.6699C28.6122 17.386 27.187 16.598 24.4813 16.598V16.5806Z" fill="#00BABA"/>
<path d="M24.4813 19.6269C21.9378 19.6269 19.2031 18.9201 19.2031 17.3789H20.3619C20.3619 17.657 21.7814 18.4681 24.4813 18.4681C27.1812 18.4681 28.6122 17.657 28.6122 17.3789H29.771C29.771 18.9143 27.0247 19.6269 24.4813 19.6269Z" fill="#00BABA"/>
</g>
<defs>
<clipPath id="clip0_11889_81122">
<rect width="28.9689" height="28.9689" fill="white" transform="translate(0.804688 0.375)"/>
</clipPath>
</defs>
</svg>
